<?xml version="1.0" encoding="UTF-8"?>
<svg width="88px" height="88px" viewBox="0 0 88 88" version="1.1" xmlns="http://www.w3.org/2000/svg" xmlns:xlink="http://www.w3.org/1999/xlink">
    <title>logo</title>
    <g id="logo" stroke="none" stroke-width="1" fill="none" fill-rule="evenodd">
        <path d="M78.785,76 L78.785,74.2 C76.985,74.08 75.635,73.84 74.735,73.48 C73.835,73.12 73.22,72.4 72.89,71.32 C72.56,70.24 72.395,68.62 72.395,66.46 L72.395,66.46 L72.395,21.82 C72.395,19.6 72.545,17.965 72.845,16.915 C73.145,15.865 73.76,15.145 74.69,14.755 C75.62,14.365 76.985,14.14 78.785,14.08 L78.785,14.08 L78.785,12.28 C77.165,12.34 75.005,12.4 72.305,12.46 C69.605,12.52 66.725,12.55 63.665,12.55 C60.725,12.55 57.8,12.52 54.89,12.46 C51.98,12.4 49.595,12.34 47.735,12.28 L47.735,12.28 L47.735,14.08 C49.535,14.14 50.9,14.365 51.83,14.755 C52.76,15.145 53.375,15.865 53.675,16.915 C53.975,17.965 54.125,19.6 54.125,21.82 L54.125,21.82 L54.125,43.061 L33.875,43.061 L33.875,21.82 C33.875,19.73875 34.0068359,18.1716602 34.2705078,17.1187305 L34.325,16.915 C34.625,15.865 35.24,15.145 36.17,14.755 C37.1,14.365 38.465,14.14 40.265,14.08 L40.265,14.08 L40.265,12.28 C38.525,12.34 36.29,12.4 33.56,12.46 C30.83,12.52 28.055,12.55 25.235,12.55 C21.995,12.55 18.95,12.52 16.1,12.46 C13.25,12.4 10.955,12.34 9.215,12.28 L9.215,12.28 L9.215,14.08 C11.015,14.14 12.38,14.365 13.31,14.755 C14.24,15.145 14.855,15.865 15.155,16.915 C15.455,17.965 15.605,19.6 15.605,21.82 L15.605,21.82 L15.605,66.46 C15.605,68.62 15.455,70.24 15.155,71.32 C14.855,72.4 14.255,73.12 13.355,73.48 C12.455,73.84 11.075,74.08 9.215,74.2 L9.215,74.2 L9.215,76 C10.955,75.88 13.25,75.805 16.1,75.775 C18.95,75.745 21.995,75.73 25.235,75.73 C28.055,75.73 30.83,75.745 33.56,75.775 C36.29,75.805 38.525,75.88 40.265,76 L40.265,76 L40.265,74.2 C38.465,74.08 37.115,73.84 36.215,73.48 C35.315,73.12 34.7,72.4 34.37,71.32 C34.04,70.24 33.875,68.62 33.875,66.46 L33.875,66.46 L33.875,44.86 L54.125,44.86 L54.125,66.46 C54.125,68.485 53.9931641,70.0353906 53.7294922,71.1111719 L53.675,71.32 C53.375,72.4 52.775,73.12 51.875,73.48 C50.975,73.84 49.595,74.08 47.735,74.2 L47.735,74.2 L47.735,76 C49.595,75.88 51.98,75.805 54.89,75.775 C57.8,75.745 60.725,75.73 63.665,75.73 C66.725,75.73 69.605,75.745 72.305,75.775 C75.005,75.805 77.165,75.88 78.785,76 L78.785,76 Z" id="H" fill="#333F48" fill-rule="nonzero"></path>
        <g id="logotype" transform="translate(0.250000, 31.975155)">
            <rect id="Rectangle" fill="#333F48" x="1.36645963" y="1.0931677" width="85.2670807" height="22.136646" rx="3"></rect>
            <path d="M18.310559,17.4906832 L18.310559,17.1895989 C17.984448,17.1695266 17.7398648,17.129382 17.5768093,17.0691652 C17.4137539,17.0089483 17.3042009,16.8885146 17.2481506,16.707864 C17.1921003,16.5272134 17.1640751,16.2562375 17.1640751,15.8949363 L17.1640751,15.8949363 L17.1640751,8.42804506 C17.1640751,8.05670772 17.1895526,7.7832228 17.2405074,7.60759027 C17.2914622,7.43195775 17.4010151,7.31152402 17.5691661,7.24628908 C17.7373171,7.18105415 17.984448,7.14341861 18.310559,7.13338246 L18.310559,7.13338246 L18.310559,6.83229814 C18.0557848,6.84233428 17.7220306,6.85237042 17.3092964,6.86240657 C16.8965622,6.87244271 16.4558029,6.87746079 15.9870184,6.87746079 C15.5488068,6.87746079 15.1080474,6.87244271 14.6647403,6.86240657 C14.2214332,6.85237042 13.8622016,6.84233428 13.5870455,6.83229814 L13.5870455,6.83229814 L13.5870455,7.13338246 C13.9029655,7.14341861 14.145001,7.18105415 14.3131519,7.24628908 C14.4813029,7.31152402 14.5934036,7.43195775 14.6494539,7.60759027 C14.7055042,7.7832228 14.7335294,8.05670772 14.7335294,8.42804506 L14.7335294,8.42804506 L14.7334984,11.9808401 L10.6825887,11.9808401 L10.6826197,8.42804506 C10.6826197,8.08527213 10.7043283,7.82587641 10.7477454,7.64985788 L10.759052,7.60759027 C10.8100068,7.43195775 10.9195597,7.31152402 11.0877107,7.24628908 C11.2558616,7.18105415 11.5029926,7.14341861 11.8291036,7.13338246 L11.8291036,7.13338246 L11.8291036,6.83229814 C11.5539474,6.84233428 11.2074545,6.85237042 10.7896249,6.86240657 C10.3717952,6.87244271 9.94887004,6.87746079 9.5208494,6.87746079 C9.02149198,6.87746079 8.5603507,6.87244271 8.13742554,6.86240657 C7.71450038,6.85237042 7.37055522,6.84233428 7.10559006,6.83229814 L7.10559006,6.83229814 L7.10559006,7.13338246 C7.42151006,7.14341861 7.66354554,7.18105415 7.83169651,7.24628908 C7.99984747,7.31152402 8.11194812,7.43195775 8.16799844,7.60759027 C8.22404876,7.7832228 8.25207392,8.05670772 8.25207392,8.42804506 L8.25207392,8.42804506 L8.25207392,15.8949363 C8.25207392,16.2562375 8.22404876,16.5272134 8.16799844,16.707864 C8.11194812,16.8885146 8.00239522,17.0089483 7.83933973,17.0691652 C7.67628425,17.129382 7.43170103,17.1695266 7.10559006,17.1895989 L7.10559006,17.1895989 L7.10559006,17.4906832 C7.37055522,17.4706109 7.71450038,17.4580658 8.13742554,17.4530477 C8.5603507,17.4480296 9.02149198,17.4455206 9.5208494,17.4455206 C9.94887004,17.4455206 10.3717952,17.4480296 10.7896249,17.4530477 C11.2074545,17.4580658 11.5539474,17.4706109 11.8291036,17.4906832 L11.8291036,17.4906832 L11.8291036,17.1895989 C11.5029926,17.1695266 11.2584094,17.129382 11.0953539,17.0691652 C10.9322984,17.0089483 10.8227455,16.8885146 10.7666952,16.707864 C10.7106449,16.5272134 10.6826197,16.2562375 10.6826197,15.8949363 L10.6826197,15.8949363 L10.6825887,12.2819244 L14.7334984,12.2819244 L14.7335294,15.8949363 C14.7335294,16.2284451 14.7096499,16.4849903 14.6618911,16.664572 L14.6494539,16.707864 C14.5934036,16.8885146 14.4838506,17.0089483 14.3207952,17.0691652 C14.1577397,17.129382 13.9131565,17.1695266 13.5870455,17.1895989 L13.5870455,17.1895989 L13.5870455,17.4906832 C13.8622016,17.4706109 14.2214332,17.4580658 14.6647403,17.4530477 C15.1080474,17.4480296 15.5488068,17.4455206 15.9870184,17.4455206 C16.4558029,17.4455206 16.8965622,17.4480296 17.3092964,17.4530477 C17.7220306,17.4580658 18.0557848,17.4706109 18.310559,17.4906832 L18.310559,17.4906832 Z M23.2490139,11.9808401 L23.249018,8.24739446 C23.249018,7.92623785 23.2744596,7.6928975 23.3253427,7.54737341 C23.3762259,7.40184932 23.4754481,7.30399691 23.6230093,7.25381619 C23.7705706,7.20363547 23.9970007,7.17854511 24.3022998,7.17854511 L24.3022998,7.17854511 L24.9281629,7.17854511 C25.3861116,7.17854511 25.7855446,7.26636137 26.1264619,7.44199389 C26.4673792,7.61762642 26.7446925,7.91871074 26.9584019,8.34524687 C27.1721112,8.77178299 27.3298491,9.35137032 27.4316155,10.0840088 L27.4316155,10.0840088 L27.7827094,10.0840088 C27.7725328,9.96357511 27.7623561,9.81303295 27.7521795,9.63238236 C27.7420029,9.45173176 27.7369146,9.26104502 27.7369146,9.06032214 C27.7369146,8.83952697 27.744547,8.52338843 27.759812,8.11190652 C27.7750769,7.70042461 27.8030627,7.27388848 27.8437692,6.83229814 C27.375644,6.85237042 26.8439147,6.86491561 26.2485815,6.86993368 C25.6532483,6.87495175 25.121519,6.87746079 24.6533938,6.87746079 L23.2795479,6.87746079 C22.7096562,6.87746079 22.1041464,6.87244271 21.4630183,6.86240657 C20.8218902,6.85237042 20.226557,6.84233428 19.6770186,6.83229814 L19.6770186,6.83229814 L19.6770186,7.13338246 C19.9924944,7.14341861 20.2341895,7.18105415 20.402104,7.24628908 C20.5700185,7.31152402 20.6819615,7.43195775 20.737933,7.60759027 C20.7939045,7.7832228 20.8218902,8.05670772 20.8218902,8.42804506 L20.8218902,8.42804506 L20.8218902,15.8949363 C20.8218902,16.2562375 20.7939045,16.5272134 20.737933,16.707864 C20.6819615,16.8885146 20.5725626,17.0089483 20.4097364,17.0691652 C20.2469103,17.129382 20.002671,17.1695266 19.6770186,17.1895989 L19.6770186,17.1895989 L19.6770186,17.4906832 C20.226557,17.4706109 20.8218902,17.4580658 21.4630183,17.4530477 C22.1041464,17.4480296 22.7096562,17.4455206 23.2795479,17.4455206 L23.2795479,17.4455206 L24.6533938,17.4455206 C25.1622256,17.4455206 25.7422938,17.4480296 26.3935986,17.4530477 C27.0449033,17.4580658 27.6300599,17.4706109 28.1490683,17.4906832 C28.0981851,17.0390567 28.0676552,16.6024845 28.0574786,16.1809664 C28.047302,15.7594484 28.0422136,15.4332737 28.0422136,15.2024424 C28.0422136,14.6805629 28.0574786,14.2590448 28.0880085,13.9378882 L28.0880085,13.9378882 L27.7369146,13.9378882 C27.6046183,14.7407797 27.4138064,15.3780749 27.1644788,15.8497737 C26.9151512,16.3214724 26.6149404,16.6551742 26.2638465,16.850879 C25.9127525,17.0465839 25.5082312,17.1444363 25.0502826,17.1444363 L25.0502826,17.1444363 L24.3022998,17.1444363 C23.9970007,17.1444363 23.7705706,17.1193459 23.6230093,17.0691652 C23.4754481,17.0189845 23.3762259,16.918623 23.3253427,16.7680809 C23.2744596,16.6175387 23.249018,16.3867074 23.249018,16.0755869 L23.249018,16.0755869 L23.2490139,12.2819244 L23.7374965,12.2819244 C24.1174243,12.2819244 24.4308647,12.3627934 24.6778177,12.5245315 L24.7297185,12.5604274 C24.9841344,12.7460961 25.1800347,12.9894726 25.3174193,13.2905569 C25.4548039,13.5916412 25.5489378,13.9178159 25.5998209,14.269081 L25.5998209,14.269081 L25.9509149,14.269081 C25.9482011,14.2309436 25.9455552,14.1934084 25.9429771,14.1564754 L25.9216062,13.8403369 C25.897725,13.4738169 25.882053,13.1801593 25.8745901,12.9593641 C25.8644135,12.6582798 25.8593252,12.3822859 25.8593252,12.1313823 C25.8593252,11.8804786 25.856781,11.6044847 25.8516927,11.3034004 C25.8466044,11.002316 25.8644135,10.5657438 25.90512,9.99368355 L25.90512,9.99368355 L25.5540261,9.99368355 C25.5031429,10.2646594 25.4115532,10.5531986 25.2792569,10.859301 C25.1469606,11.1654034 24.9586929,11.4288522 24.7144536,11.6496473 C24.4702143,11.8704425 24.144562,11.9808401 23.7374965,11.9808401 L23.7374965,11.9808401 L23.2490139,11.9808401 Z M36.403448,17.4906832 L36.403448,17.1900236 C36.076432,17.1699796 35.83117,17.1298916 35.667662,17.0697597 C35.5041541,17.0096278 35.3942971,16.8893639 35.3380913,16.7089681 C35.2818854,16.5285723 35.2537824,16.2579786 35.2537824,15.897187 L35.2537824,15.897187 L35.2535382,12.387236 L37.0625896,8.87678385 C37.3308449,8.36942067 37.5766458,7.98317283 37.7999923,7.71804033 L37.8443622,7.6666287 C38.0794049,7.401046 38.309338,7.2231557 38.5341615,7.1329578 L38.5341615,7.1329578 L38.5341615,6.83229814 C38.3808728,6.84232013 38.2045907,6.85234211 38.0053153,6.8623641 C37.80604,6.87238609 37.5939906,6.87739709 37.3691671,6.87739709 C37.0523703,6.87739709 36.7406832,6.87238609 36.4341057,6.8623641 C36.1275283,6.85234211 35.8005123,6.84232013 35.4530578,6.83229814 L35.4530578,6.83229814 L35.4530578,7.1329578 C35.872047,7.14297979 36.1965082,7.23568319 36.4264413,7.41106799 C36.6563744,7.58645279 36.7585669,7.87959597 36.7330188,8.29049751 C36.7074707,8.70139905 36.5056405,9.26764142 36.1275283,9.98922461 L36.1275283,9.98922461 L34.9367415,12.3358733 L32.6018872,7.92970591 C32.4880156,7.71566486 32.4622589,7.55563262 32.5246172,7.44960918 L32.5405717,7.42610097 C32.6223257,7.32087009 32.7653952,7.24821067 32.9697802,7.20812272 C33.1741652,7.16803476 33.4040983,7.14799078 33.6595796,7.14799078 L33.6595796,7.14799078 L33.6595796,6.83229814 C33.2303711,6.85234211 32.755176,6.86988059 32.2339943,6.88491358 C31.7128125,6.89994656 31.2273982,6.90746305 30.7777512,6.90746305 C30.4302968,6.90746305 30.1109452,6.90245206 29.8196966,6.89243007 C29.528448,6.88240808 29.2448638,6.8623641 28.9689441,6.83229814 L28.9689441,6.83229814 L28.9689441,7.14799078 C29.0813558,7.14799078 29.2116513,7.20311172 29.3598304,7.3133536 C29.5080095,7.42359548 29.6740723,7.64909022 29.8580188,7.98983784 L29.8580188,7.98983784 L32.8162472,13.3588678 L32.8164915,15.897187 C32.8164915,16.2302254 32.7925458,16.4864088 32.7446544,16.6657372 L32.7321827,16.7089681 C32.6759768,16.8893639 32.5661199,17.0096278 32.4026119,17.0697597 C32.2391039,17.1298916 31.9938419,17.1699796 31.6668259,17.1900236 L31.6668259,17.1900236 L31.6668259,17.4906832 C31.9120879,17.4706393 32.2493231,17.4581118 32.6785316,17.4531008 C33.1077401,17.4480898 33.5624967,17.4455843 34.0428014,17.4455843 C34.4720099,17.4455843 34.9037732,17.4480898 35.3380913,17.4531008 C35.7724094,17.4581118 36.1275283,17.4706393 36.403448,17.4906832 L36.403448,17.4906832 Z M46.0829408,17.4906832 L46.0829408,17.1895989 C45.6615955,17.1695266 45.3405705,17.124364 45.1198658,17.054111 C44.8991612,16.9838579 44.7511887,16.84837 44.6759485,16.6476471 C44.6007083,16.4469242 44.5630882,16.1458399 44.5630882,15.7443941 L44.5630882,15.7443941 L44.5630882,7.17854511 L45.3756826,7.17854511 C46.0077005,7.17854511 46.47419,7.26887041 46.7751509,7.449521 C47.0761118,7.6301716 47.2867844,7.92372881 47.4071688,8.33019265 C47.5275531,8.73665649 47.6228574,9.29115345 47.6930816,9.99368355 L47.6930816,9.99368355 L48.0391867,9.99368355 C48.0291547,9.83310524 48.0191226,9.64743657 48.0090906,9.43667755 C47.9990586,9.22591852 47.9940426,9.00010527 47.9940426,8.75923781 C47.9940426,8.56855108 48.0015666,8.29506615 48.0166146,7.93878303 C48.0316627,7.58249991 48.0592508,7.21367161 48.0993789,6.83229814 C47.6880656,6.84233428 47.2316083,6.85237042 46.7300067,6.86240657 C46.2284052,6.87244271 45.7293117,6.87746079 45.2327262,6.87746079 L45.2327262,6.87746079 L42.5015059,6.87746079 C41.9999044,6.87746079 41.5008109,6.87244271 41.0042254,6.86240657 C40.5076399,6.85237042 40.0486745,6.84233428 39.6273292,6.83229814 C39.6674573,7.21367161 39.6950454,7.58249991 39.7100934,7.93878303 C39.7251415,8.29506615 39.7326655,8.56855108 39.7326655,8.75923781 C39.7326655,9.00010527 39.7301575,9.22591852 39.7251415,9.43667755 C39.7201255,9.64743657 39.7075854,9.83310524 39.6875214,9.99368355 L39.6875214,9.99368355 L40.0336264,9.99368355 C40.1038506,9.29115345 40.1991549,8.73665649 40.3195393,8.33019265 C40.4399237,7.92372881 40.6531043,7.6301716 40.9590812,7.449521 C41.2650582,7.26887041 41.7290396,7.17854511 42.3510255,7.17854511 L42.3510255,7.17854511 L43.1636199,7.17854511 L43.1636199,15.7443941 C43.1636199,16.1458399 43.1259998,16.4469242 43.0507596,16.6476471 C42.9755193,16.84837 42.8275469,16.9838579 42.6068422,17.054111 C42.3861376,17.124364 42.0651126,17.1695266 41.6437673,17.1895989 L41.6437673,17.1895989 L41.6437673,17.4906832 C41.884536,17.4706109 42.203053,17.4580658 42.5993182,17.4530477 C42.9955834,17.4480296 43.4194367,17.4455206 43.8708781,17.4455206 C44.2821913,17.4455206 44.6884885,17.4480296 45.0897698,17.4530477 C45.491051,17.4580658 45.822108,17.4706109 46.0829408,17.4906832 L46.0829408,17.4906832 Z M59.5776398,17.4906832 L59.5776398,17.1895989 C59.2370739,17.1695266 58.9791453,17.129382 58.8038541,17.0691652 C58.6285628,17.0089483 58.5108673,16.8885146 58.4507674,16.707864 C58.3906675,16.5272134 58.3606176,16.2562375 58.3606176,15.8949363 L58.3606176,15.8949363 L58.3606176,8.42804506 C58.3606176,8.05670772 58.3906675,7.7832228 58.4507674,7.60759027 C58.5108673,7.43195775 58.6285628,7.31152402 58.8038541,7.24628908 C58.9791453,7.18105415 59.2370739,7.14341861 59.5776398,7.13338246 L59.5776398,7.13338246 L59.5776398,6.83229814 C59.3672902,6.84233428 59.0918326,6.85237042 58.7512667,6.86240657 C58.4107008,6.87244271 58.0450934,6.87746079 57.6544443,6.87746079 C57.3138784,6.87746079 56.9683042,6.87244271 56.6177217,6.86240657 C56.2671392,6.85237042 55.9766565,6.84233428 55.7462738,6.83229814 L55.7462738,6.83229814 L55.7462738,7.13338246 C56.0868396,7.14341861 56.3447682,7.18105415 56.5200594,7.24628908 C56.6953507,7.31152402 56.8130462,7.43195775 56.8731461,7.60759027 C56.933246,7.7832228 56.9632959,8.05670772 56.9632959,8.42804506 L56.9632959,8.42804506 L56.9630759,11.9808401 L52.0799624,11.9808401 L52.0801824,8.42804506 C52.0801824,8.08527213 52.105787,7.82587641 52.1569964,7.64985788 L52.1703322,7.60759027 C52.230432,7.43195775 52.3481276,7.31152402 52.5234188,7.24628908 C52.6987101,7.18105415 52.9566386,7.14341861 53.2972045,7.13338246 L53.2972045,7.13338246 L53.2972045,6.83229814 C53.0668217,6.84233428 52.7788432,6.85237042 52.433269,6.86240657 C52.0876948,6.87244271 51.7396165,6.87746079 51.389034,6.87746079 C50.9983849,6.87746079 50.6327774,6.87244271 50.2922116,6.86240657 C49.9516457,6.85237042 49.676188,6.84233428 49.4658385,6.83229814 L49.4658385,6.83229814 L49.4658385,7.13338246 C49.8064044,7.14341861 50.0643329,7.18105415 50.2396242,7.24628908 C50.4149154,7.31152402 50.532611,7.43195775 50.5927109,7.60759027 C50.6528107,7.7832228 50.6828606,8.05670772 50.6828606,8.42804506 L50.6828606,8.42804506 L50.6828606,15.8949363 C50.6828606,16.2562375 50.6528107,16.5272134 50.5927109,16.707864 C50.532611,16.8885146 50.4149154,17.0089483 50.2396242,17.0691652 C50.0643329,17.129382 49.8064044,17.1695266 49.4658385,17.1895989 L49.4658385,17.1895989 L49.4658385,17.4906832 C49.676188,17.4706109 49.9516457,17.4580658 50.2922116,17.4530477 C50.6327774,17.4480296 50.9983849,17.4455206 51.389034,17.4455206 C51.7396165,17.4455206 52.0876948,17.4480296 52.433269,17.4530477 C52.7788432,17.4580658 53.0668217,17.4706109 53.2972045,17.4906832 L53.2972045,17.4906832 L53.2972045,17.1895989 C52.9566386,17.1695266 52.6987101,17.129382 52.5234188,17.0691652 C52.3481276,17.0089483 52.230432,16.8885146 52.1703322,16.707864 C52.1102323,16.5272134 52.0801824,16.2562375 52.0801824,15.8949363 L52.0801824,15.8949363 L52.0799624,12.2819244 L56.9630759,12.2819244 L56.9632959,15.8949363 C56.9632959,16.2284451 56.9376912,16.4849903 56.8864819,16.664572 L56.8731461,16.707864 C56.8130462,16.8885146 56.6953507,17.0089483 56.5200594,17.0691652 C56.3447682,17.129382 56.0868396,17.1695266 55.7462738,17.1895989 L55.7462738,17.1895989 L55.7462738,17.4906832 C55.9766565,17.4706109 56.2671392,17.4580658 56.6177217,17.4530477 C56.9683042,17.4480296 57.3138784,17.4455206 57.6544443,17.4455206 C58.0450934,17.4455206 58.4107008,17.4480296 58.7512667,17.4530477 C59.0918326,17.4580658 59.3672902,17.4706109 59.5776398,17.4906832 L59.5776398,17.4906832 Z M70.5093168,17.7639752 L70.5093168,17.4573362 C70.3461067,17.447115 70.1675956,17.3781212 69.9737836,17.250355 C69.7799716,17.1225888 69.6065609,16.864501 69.4535514,16.4760917 L69.4535514,16.4760917 L65.7201202,6.83229814 L65.7201202,6.83229814 L65.475305,6.83229814 L61.8795823,16.123457 C61.7061716,16.5834154 61.5123596,16.9079415 61.2981463,17.0970355 C61.083933,17.2861295 60.8748201,17.4062298 60.6708075,17.4573362 L60.6708075,17.4573362 L60.6708075,17.7639752 C60.8238169,17.7435326 60.9895772,17.7307559 61.1680883,17.7256453 C61.3465993,17.7205346 61.5633627,17.7179793 61.8183785,17.7179793 C62.0835949,17.7179793 62.3717628,17.7205346 62.6828821,17.7256453 C62.9940013,17.7307559 63.2923698,17.7435326 63.5779875,17.7639752 L63.5779875,17.7639752 L63.5779875,17.4573362 C63.149561,17.447115 62.8231408,17.3755659 62.5987269,17.242689 C62.374313,17.1098122 62.2570057,16.8874989 62.2468051,16.5757494 C62.2366044,16.2639998 62.3386107,15.83215 62.552824,15.2802 L62.552824,15.2802 L63.1768787,13.6550138 L66.8769028,13.6550138 L67.81635,16.1694528 C68.0114925,16.6680744 68.0479757,17.0007013 67.9257995,17.1673335 L67.9081557,17.1890272 C67.7653468,17.3474573 67.4338263,17.4368937 66.9135941,17.4573362 L66.9135941,17.4573362 L66.9135941,17.7639752 C67.1278073,17.7435326 67.4083247,17.7307559 67.7551462,17.7256453 C68.1019677,17.7205346 68.4742907,17.7179793 68.8721154,17.7179793 C69.1679337,17.7179793 69.463752,17.7205346 69.7595703,17.7256453 C70.0553887,17.7307559 70.3053041,17.7435326 70.5093168,17.7639752 L70.5093168,17.7639752 Z M66.6832298,13.3913043 L63.1304348,13.3913043 L64.9319145,8.74534161 L66.6832298,13.3913043 Z M75.1004442,12.4646857 C75.5013903,12.4646857 75.8046058,12.5555307 76.0100907,12.7372206 C76.2155755,12.9189105 76.375954,13.1687342 76.491226,13.4866916 C76.606498,13.8046489 76.7092404,14.1806461 76.7994533,14.6146832 L76.7994533,14.6146832 L77.1302338,16.1287659 C77.2705649,16.7747745 77.4810616,17.2088115 77.7617239,17.430877 C78.0423861,17.6529424 78.3681548,17.7639752 78.7390299,17.7639752 C79.1499997,17.7639752 79.4682506,17.6807006 79.6937828,17.5141515 C79.919315,17.3476024 80.1373294,17.1078727 80.3478261,16.7949622 L80.3478261,16.7949622 L80.1222939,16.6284131 C79.9919864,16.8000092 79.8691967,16.9362766 79.7539247,17.0372155 C79.6386527,17.1381543 79.4958157,17.1936707 79.3254136,17.2037646 C79.1048932,17.2138584 78.9420089,17.12049 78.8367605,16.9236593 C78.7315122,16.7268285 78.6287698,16.4063477 78.5285332,15.9622168 L78.5285332,15.9622168 L78.1526463,14.4178524 C78.0123152,13.7920316 77.7943007,13.3302363 77.498603,13.0324668 C77.2029053,12.7346972 76.719264,12.530296 76.0476794,12.4192633 C76.0025729,12.4116928 75.9569966,12.4044379 75.9109505,12.3974983 L75.8823196,12.3935239 L75.9577786,12.3819351 C76.2207174,12.3390274 76.4607128,12.2794333 76.6777647,12.2031528 L76.7693823,12.1694396 C77.2805886,11.9726089 77.6840406,11.7227852 77.9797383,11.4199687 C78.275436,11.1171521 78.4834268,10.7941478 78.6037106,10.4509558 C78.7239945,10.1077637 78.7841364,9.78475938 78.7841364,9.48194284 C78.7841364,8.73499538 78.4834268,8.10917454 77.8820077,7.60448031 C77.2805886,7.09978608 76.373448,6.84743896 75.1605861,6.84743896 C74.9801604,6.84743896 74.674439,6.85248591 74.243422,6.86257979 C73.8124049,6.87267368 73.3613406,6.87772062 72.8902289,6.87772062 C72.5594484,6.87772062 72.2236561,6.87267368 71.8828519,6.86257979 C71.5420477,6.85248591 71.2663973,6.84239202 71.0559006,6.83229814 L71.0559006,6.83229814 L71.0559006,7.13511467 C71.3967048,7.14520856 71.6548138,7.18306063 71.8302277,7.24867088 C72.0056417,7.31428113 72.1234196,7.43540774 72.1835615,7.61205072 C72.2437034,7.7886937 72.2737743,8.06375206 72.2737743,8.43722579 L72.2737743,8.43722579 L72.2737743,15.9470759 C72.2737743,16.3104558 72.2437034,16.5829907 72.1835615,16.7646806 C72.1234196,16.9463705 72.0056417,17.0674971 71.8302277,17.1280604 C71.6548138,17.1886237 71.3967048,17.2289993 71.0559006,17.249187 L71.0559006,17.249187 L71.0559006,17.5520036 C71.2663973,17.5318158 71.5420477,17.5191985 71.8828519,17.5141515 C72.2236561,17.5091046 72.5895194,17.5065811 72.9804418,17.5065811 C73.3312696,17.5065811 73.6795915,17.5091046 74.0254075,17.5141515 C74.3712235,17.5191985 74.6594035,17.5318158 74.8899475,17.5520036 L74.8899475,17.5520036 L74.8899475,17.249187 C74.5491434,17.2289993 74.2910343,17.1886237 74.1156204,17.1280604 C73.9402065,17.0674971 73.8224286,16.9463705 73.7622867,16.7646806 C73.7021448,16.5829907 73.6720738,16.3104558 73.6720738,15.9470759 L73.6720738,15.9470759 L73.6718537,12.4646857 L74.8298056,12.4646857 L74.8298056,12.4646857 L75.1004442,12.4646857 Z M73.7890366,8.37985482 C73.7890366,7.86619771 73.8581145,7.52540597 73.9962703,7.35747961 C74.1344261,7.18955324 74.4304743,7.10559006 74.8844149,7.10559006 C75.7824278,7.10559006 76.4164643,7.32043703 76.7865245,7.75013096 C77.1565848,8.17982489 77.3416149,8.7848537 77.3416149,9.56521739 C77.3416149,10.0196064 77.2750041,10.4320138 77.1417824,10.8024396 C77.0085607,11.1728654 76.7569197,11.469206 76.3868595,11.6914615 C76.0167992,11.913717 75.4814454,12.0248447 74.780798,12.0248447 L74.780798,12.0248447 L73.7888199,12.0248447 L73.7890366,8.37985482 Z" id="HEYTHAR" fill="#FFFFFF" fill-rule="nonzero"></path>
        </g>
    </g>
</svg>