<?xml version="1.0" encoding="UTF-8"?>
<svg width="322px" height="88px" viewBox="0 0 322 88" version="1.1" xmlns="http://www.w3.org/2000/svg" xmlns:xlink="http://www.w3.org/1999/xlink">
    <title>logotype</title>
    <g id="logotype" stroke="none" stroke-width="1" fill="none" fill-rule="evenodd">
        <rect id="Rectangle" fill="#333F48" x="5" y="4" width="312" height="81" rx="3"></rect>
        <path d="M67,64 L67,62.8983051 C65.8067303,62.8248588 64.9117781,62.6779661 64.3151432,62.4576271 C63.7185084,62.2372881 63.3176444,61.7966102 63.1125512,61.1355932 C62.9074579,60.4745763 62.8049113,59.4830508 62.8049113,58.1610169 L62.8049113,58.1610169 L62.8049113,30.8389831 C62.8049113,29.480226 62.8981355,28.4795198 63.0845839,27.8368644 C63.2710323,27.194209 63.6718963,26.7535311 64.287176,26.5148305 C64.9024557,26.2761299 65.8067303,26.1384181 67,26.1016949 L67,26.1016949 L67,25 C66.0677581,25.0367232 64.8465211,25.0734463 63.3362892,25.1101695 C61.8260573,25.1468927 60.2132788,25.1652542 58.4979536,25.1652542 C56.8944975,25.1652542 55.281719,25.1468927 53.659618,25.1101695 C52.0375171,25.0734463 50.7230559,25.0367232 49.7162347,25 L49.7162347,25 L49.7162347,26.1016949 C50.8722146,26.1384181 51.7578445,26.2761299 52.3731241,26.5148305 C52.9884038,26.7535311 53.3985903,27.194209 53.6036835,27.8368644 C53.8087767,28.4795198 53.9113233,29.480226 53.9113233,30.8389831 L53.9113233,30.8389831 L53.91121,43.8389831 L39.0885633,43.8389831 L39.0886767,30.8389831 C39.0886767,29.5847458 39.1681103,28.6355932 39.3269776,27.9915254 L39.3683492,27.8368644 C39.5547976,27.194209 39.9556617,26.7535311 40.5709413,26.5148305 C41.186221,26.2761299 42.0904957,26.1384181 43.2837653,26.1016949 L43.2837653,26.1016949 L43.2837653,25 C42.2769441,25.0367232 41.009095,25.0734463 39.4802183,25.1101695 C37.9513415,25.1468927 36.4038199,25.1652542 34.8376535,25.1652542 C33.0104593,25.1652542 31.3231014,25.1468927 29.7755798,25.1101695 C28.2280582,25.0734463 26.9695316,25.0367232 26,25 L26,25 L26,26.1016949 C27.15598,26.1384181 28.0416098,26.2761299 28.6568895,26.5148305 C29.2721692,26.7535311 29.6823556,27.194209 29.8874488,27.8368644 C30.0925421,28.4795198 30.1950887,29.480226 30.1950887,30.8389831 L30.1950887,30.8389831 L30.1950887,58.1610169 C30.1950887,59.4830508 30.0925421,60.4745763 29.8874488,61.1355932 C29.6823556,61.7966102 29.2814916,62.2372881 28.6848568,62.4576271 C28.0882219,62.6779661 27.1932697,62.8248588 26,62.8983051 L26,62.8983051 L26,64 C26.9695316,63.9265537 28.2280582,63.8806497 29.7755798,63.8622881 C31.3231014,63.8439266 33.0104593,63.8347458 34.8376535,63.8347458 C36.4038199,63.8347458 37.9513415,63.8439266 39.4802183,63.8622881 C41.009095,63.8806497 42.2769441,63.9265537 43.2837653,64 L43.2837653,64 L43.2837653,62.8983051 C42.0904957,62.8248588 41.1955434,62.6779661 40.5989086,62.4576271 C40.0022738,62.2372881 39.6014097,61.7966102 39.3963165,61.1355932 C39.1912233,60.4745763 39.0886767,59.4830508 39.0886767,58.1610169 L39.0886767,58.1610169 L39.0885633,44.940678 L53.91121,44.940678 L53.9113233,58.1610169 C53.9113233,59.3813559 53.8239463,60.3200782 53.6491923,60.9771838 L53.6036835,61.1355932 C53.3985903,61.7966102 52.9977262,62.2372881 52.4010914,62.4576271 C51.8044566,62.6779661 50.9095043,62.8248588 49.7162347,62.8983051 L49.7162347,62.8983051 L49.7162347,64 C50.7230559,63.9265537 52.0375171,63.8806497 53.659618,63.8622881 C55.281719,63.8439266 56.8944975,63.8347458 58.4979536,63.8347458 C60.2132788,63.8347458 61.8260573,63.8439266 63.3362892,63.8622881 C64.8465211,63.8806497 66.0677581,63.9265537 67,64 L67,64 Z M85.0702553,43.8389831 L85.0702703,30.1779661 C85.0702703,29.0028249 85.1633634,28.1490113 85.3495495,27.6165254 C85.5357357,27.0840395 85.8987988,26.7259887 86.4387387,26.5423729 C86.9786787,26.3587571 87.8072072,26.2669492 88.9243243,26.2669492 L88.9243243,26.2669492 L91.2144144,26.2669492 C92.8900901,26.2669492 94.3516517,26.5882768 95.5990991,27.2309322 C96.8465465,27.8735876 97.8612613,28.9752825 98.6432432,30.5360169 C99.4252252,32.0967514 100.002402,34.2175141 100.374775,36.8983051 L100.374775,36.8983051 L101.659459,36.8983051 C101.622222,36.4576271 101.584985,35.9067797 101.547748,35.2457627 C101.510511,34.5847458 101.491892,33.8870056 101.491892,33.1525424 C101.491892,32.3446328 101.51982,31.1878531 101.575676,29.6822034 C101.631532,28.1765537 101.733934,26.6158192 101.882883,25 C100.16997,25.0734463 98.2243243,25.1193503 96.0459459,25.1377119 C93.8675676,25.1560734 91.9219219,25.1652542 90.209009,25.1652542 L85.181982,25.1652542 C83.0966967,25.1652542 80.8810811,25.1468927 78.5351351,25.1101695 C76.1891892,25.0734463 74.0108108,25.0367232 72,25 L72,25 L72,26.1016949 C73.1543544,26.1384181 74.0387387,26.2761299 74.6531532,26.5148305 C75.2675676,26.7535311 75.6771772,27.194209 75.881982,27.8368644 C76.0867868,28.4795198 76.1891892,29.480226 76.1891892,30.8389831 L76.1891892,30.8389831 L76.1891892,58.1610169 C76.1891892,59.4830508 76.0867868,60.4745763 75.881982,61.1355932 C75.6771772,61.7966102 75.2768769,62.2372881 74.6810811,62.4576271 C74.0852853,62.6779661 73.1915916,62.8248588 72,62.8983051 L72,62.8983051 L72,64 C74.0108108,63.9265537 76.1891892,63.8806497 78.5351351,63.8622881 C80.8810811,63.8439266 83.0966967,63.8347458 85.181982,63.8347458 L85.181982,63.8347458 L90.209009,63.8347458 C92.0708709,63.8347458 94.1933934,63.8439266 96.5765766,63.8622881 C98.9597598,63.8806497 101.100901,63.9265537 103,64 C102.813814,62.3474576 102.702102,60.75 102.664865,59.2076271 C102.627628,57.6652542 102.609009,56.4717514 102.609009,55.6271186 C102.609009,53.7175141 102.664865,52.1751412 102.776577,51 L102.776577,51 L101.491892,51 C101.007808,53.9378531 100.30961,56.269774 99.3972973,57.9957627 C98.484985,59.7217514 97.3864865,60.9427966 96.1018018,61.6588983 C94.8171171,62.375 93.3369369,62.7330508 91.6612613,62.7330508 L91.6612613,62.7330508 L88.9243243,62.7330508 C87.8072072,62.7330508 86.9786787,62.6412429 86.4387387,62.4576271 C85.8987988,62.2740113 85.5357357,61.9067797 85.3495495,61.3559322 C85.1633634,60.8050847 85.0702703,59.960452 85.0702703,58.8220339 L85.0702703,58.8220339 L85.0702553,44.940678 L86.8576577,44.940678 C88.2478478,44.940678 89.3947548,45.2365851 90.2983784,45.8283992 L90.4882883,45.9597458 C91.4192192,46.6391243 92.136036,47.529661 92.6387387,48.6313559 C93.1414414,49.7330508 93.4858859,50.9265537 93.6720721,52.2118644 L93.6720721,52.2118644 L94.9567568,52.2118644 C94.9468268,52.0723164 94.9371451,51.9349718 94.9277117,51.7998305 L94.8495135,50.6430508 C94.7621301,49.3019209 94.7047848,48.2274011 94.6774775,47.4194915 C94.6402402,46.3177966 94.6216216,45.3079096 94.6216216,44.3898305 C94.6216216,43.4717514 94.6123123,42.4618644 94.5936937,41.3601695 C94.5750751,40.2584746 94.6402402,38.6610169 94.7891892,36.5677966 L94.7891892,36.5677966 L93.5045045,36.5677966 C93.3183183,37.559322 92.9831832,38.615113 92.4990991,39.7351695 C92.015015,40.855226 91.3261261,41.819209 90.4324324,42.6271186 C89.5387387,43.4350282 88.3471471,43.8389831 86.8576577,43.8389831 L86.8576577,43.8389831 L85.0702553,43.8389831 Z M133.203526,64 L133.203526,62.899859 C132.006944,62.8265162 131.109509,62.6798307 130.511218,62.4598025 C129.912927,62.2397743 129.510951,61.7997179 129.305288,61.1396333 C129.099626,60.4795487 128.996795,59.4894217 128.996795,58.1692525 L128.996795,58.1692525 L128.995901,45.3260226 L135.615385,32.4809591 C136.596955,30.6244711 137.496363,29.2111551 138.313608,28.2410112 L138.475962,28.0528914 C139.336004,27.0811001 140.17735,26.4301834 141,26.100141 L141,26.100141 L141,25 C140.439103,25.0366714 139.794071,25.0733427 139.064904,25.1100141 C138.335737,25.1466855 137.559829,25.1650212 136.737179,25.1650212 C135.577991,25.1650212 134.4375,25.1466855 133.315705,25.1100141 C132.19391,25.0733427 130.997329,25.0366714 129.725962,25 L129.725962,25 L129.725962,26.100141 C131.259081,26.1368124 132.446314,26.4760226 133.28766,27.1177715 C134.129006,27.7595205 134.502938,28.832158 134.409455,30.3356841 C134.315972,31.8392102 133.577457,33.9111425 132.19391,36.551481 L132.19391,36.551481 L127.836713,45.1380818 L119.293269,29.0155148 C118.876603,28.2323192 118.782357,27.6467466 119.010531,27.2587972 L119.06891,27.1727786 C119.368056,26.7877292 119.89156,26.5218618 120.639423,26.3751763 C121.387286,26.2284908 122.228632,26.1551481 123.163462,26.1551481 L123.163462,26.1551481 L123.163462,25 C121.592949,25.0733427 119.854167,25.1375176 117.947115,25.1925247 C116.040064,25.2475317 114.263889,25.2750353 112.61859,25.2750353 C111.347222,25.2750353 110.178686,25.2566996 109.112981,25.2200282 C108.047276,25.1833568 107.009615,25.1100141 106,25 L106,25 L106,26.1551481 C106.411325,26.1551481 106.888088,26.3568406 107.430288,26.7602257 C107.972489,27.1636107 108.580128,27.9887165 109.253205,29.235543 L109.253205,29.235543 L120.077632,48.8813117 L120.078526,58.1692525 C120.078526,59.3878702 119.990906,60.3252685 119.815667,60.9814473 L119.770032,61.1396333 C119.56437,61.7997179 119.162393,62.2397743 118.564103,62.4598025 C117.965812,62.6798307 117.068376,62.8265162 115.871795,62.899859 L115.871795,62.899859 L115.871795,64 C116.769231,63.9266573 118.003205,63.8808181 119.573718,63.8624824 C121.144231,63.8441467 122.808226,63.8349788 124.565705,63.8349788 C126.136218,63.8349788 127.716079,63.8441467 129.305288,63.8624824 C130.894498,63.8808181 132.19391,63.9266573 133.203526,64 L133.203526,64 Z M168.62167,64 L168.62167,62.8983051 C167.079929,62.8248588 165.905269,62.6596045 165.097691,62.4025424 C164.290112,62.1454802 163.748668,61.6497175 163.473357,60.9152542 C163.198046,60.180791 163.060391,59.079096 163.060391,57.6101695 L163.060391,57.6101695 L163.060391,26.2669492 L166.033748,26.2669492 C168.346359,26.2669492 170.053286,26.5974576 171.154529,27.2584746 C172.255773,27.9194915 173.026643,28.9936441 173.46714,30.4809322 C173.907638,31.9682203 174.256365,33.9971751 174.513321,36.5677966 L174.513321,36.5677966 L175.779751,36.5677966 C175.743043,35.980226 175.706335,35.3008475 175.669627,34.529661 C175.632919,33.7584746 175.614565,32.9322034 175.614565,32.0508475 C175.614565,31.3531073 175.642096,30.3524011 175.697158,29.0487288 C175.75222,27.7450565 175.853168,26.3954802 176,25 C174.494967,25.0367232 172.824748,25.0734463 170.989343,25.1101695 C169.153937,25.1468927 167.327709,25.1652542 165.510657,25.1652542 L165.510657,25.1652542 L155.516874,25.1652542 C153.681468,25.1652542 151.85524,25.1468927 150.038188,25.1101695 C148.221137,25.0734463 146.541741,25.0367232 145,25 C145.146832,26.3954802 145.24778,27.7450565 145.302842,29.0487288 C145.357904,30.3524011 145.385435,31.3531073 145.385435,32.0508475 C145.385435,32.9322034 145.376258,33.7584746 145.357904,34.529661 C145.33955,35.3008475 145.293665,35.980226 145.220249,36.5677966 L145.220249,36.5677966 L146.486679,36.5677966 C146.743635,33.9971751 147.092362,31.9682203 147.53286,30.4809322 C147.973357,28.9936441 148.753404,27.9194915 149.873002,27.2584746 C150.992599,26.5974576 152.690349,26.2669492 154.966252,26.2669492 L154.966252,26.2669492 L157.939609,26.2669492 L157.939609,57.6101695 C157.939609,59.079096 157.801954,60.180791 157.526643,60.9152542 C157.251332,61.6497175 156.709888,62.1454802 155.902309,62.4025424 C155.094731,62.6596045 153.920071,62.8248588 152.37833,62.8983051 L152.37833,62.8983051 L152.37833,64 C153.259325,63.9265537 154.424808,63.8806497 155.874778,63.8622881 C157.324748,63.8439266 158.875666,63.8347458 160.527531,63.8347458 C162.032564,63.8347458 163.519242,63.8439266 164.987567,63.8622881 C166.455891,63.8806497 167.667259,63.9265537 168.62167,64 L168.62167,64 Z M218,64 L218,62.8983051 C216.753839,62.8248588 215.810054,62.6779661 215.168648,62.4576271 C214.527241,62.2372881 214.096582,61.7966102 213.876672,61.1355932 C213.656761,60.4745763 213.546805,59.4830508 213.546805,58.1610169 L213.546805,58.1610169 L213.546805,30.8389831 C213.546805,29.480226 213.656761,28.4795198 213.876672,27.8368644 C214.096582,27.194209 214.527241,26.7535311 215.168648,26.5148305 C215.810054,26.2761299 216.753839,26.1384181 218,26.1016949 L218,26.1016949 L218,25 C217.230312,25.0367232 216.222387,25.0734463 214.976226,25.1101695 C213.730064,25.1468927 212.392273,25.1652542 210.962853,25.1652542 C209.716691,25.1652542 208.452204,25.1468927 207.169391,25.1101695 C205.886578,25.0734463 204.823675,25.0367232 203.980684,25 L203.980684,25 L203.980684,26.1016949 C205.226845,26.1384181 206.170629,26.2761299 206.812036,26.5148305 C207.453442,26.7535311 207.884101,27.194209 208.104012,27.8368644 C208.323923,28.4795198 208.433878,29.480226 208.433878,30.8389831 L208.433878,30.8389831 L208.433073,43.8389831 L190.565317,43.8389831 L190.566122,30.8389831 C190.566122,29.5847458 190.659812,28.6355932 190.847191,27.9915254 L190.895988,27.8368644 C191.115899,27.194209 191.546558,26.7535311 192.187964,26.5148305 C192.829371,26.2761299 193.773155,26.1384181 195.019316,26.1016949 L195.019316,26.1016949 L195.019316,25 C194.176325,25.0367232 193.122585,25.0734463 191.858098,25.1101695 C190.593611,25.1468927 189.31996,25.1652542 188.037147,25.1652542 C186.607727,25.1652542 185.269936,25.1468927 184.023774,25.1101695 C182.777613,25.0734463 181.769688,25.0367232 181,25 L181,25 L181,26.1016949 C182.246161,26.1384181 183.189946,26.2761299 183.831352,26.5148305 C184.472759,26.7535311 184.903418,27.194209 185.123328,27.8368644 C185.343239,28.4795198 185.453195,29.480226 185.453195,30.8389831 L185.453195,30.8389831 L185.453195,58.1610169 C185.453195,59.4830508 185.343239,60.4745763 185.123328,61.1355932 C184.903418,61.7966102 184.472759,62.2372881 183.831352,62.4576271 C183.189946,62.6779661 182.246161,62.8248588 181,62.8983051 L181,62.8983051 L181,64 C181.769688,63.9265537 182.777613,63.8806497 184.023774,63.8622881 C185.269936,63.8439266 186.607727,63.8347458 188.037147,63.8347458 C189.31996,63.8347458 190.593611,63.8439266 191.858098,63.8622881 C193.122585,63.8806497 194.176325,63.9265537 195.019316,64 L195.019316,64 L195.019316,62.8983051 C193.773155,62.8248588 192.829371,62.6779661 192.187964,62.4576271 C191.546558,62.2372881 191.115899,61.7966102 190.895988,61.1355932 C190.676077,60.4745763 190.566122,59.4830508 190.566122,58.1610169 L190.566122,58.1610169 L190.565317,44.940678 L208.433073,44.940678 L208.433878,58.1610169 C208.433878,59.3813559 208.340188,60.3200782 208.152809,60.9771838 L208.104012,61.1355932 C207.884101,61.7966102 207.453442,62.2372881 206.812036,62.4576271 C206.170629,62.6779661 205.226845,62.8248588 203.980684,62.8983051 L203.980684,62.8983051 L203.980684,64 C204.823675,63.9265537 205.886578,63.8806497 207.169391,63.8622881 C208.452204,63.8439266 209.716691,63.8347458 210.962853,63.8347458 C212.392273,63.8347458 213.730064,63.8439266 214.976226,63.8622881 C216.222387,63.8806497 217.230312,63.9265537 218,64 L218,64 Z M258,65 L258,63.8779804 C257.402799,63.8405797 256.749611,63.5881253 256.040435,63.1206171 C255.33126,62.6531089 254.696734,61.7087424 254.136858,60.2875175 L254.136858,60.2875175 L240.475894,25 L240.475894,25 L239.580093,25 L226.423017,58.997195 C225.788491,60.6802244 225.079316,61.8676952 224.29549,62.5596073 C223.511664,63.2515194 222.746501,63.6909771 222,63.8779804 L222,63.8779804 L222,65 C222.559876,64.9251987 223.166407,64.8784479 223.819596,64.8597475 C224.472784,64.8410472 225.265941,64.8316971 226.199067,64.8316971 C227.169518,64.8316971 228.22395,64.8410472 229.362364,64.8597475 C230.500778,64.8784479 231.592535,64.9251987 232.637636,65 L232.637636,65 L232.637636,63.8779804 C231.069984,63.8405797 229.875583,63.5787751 229.054432,63.0925666 C228.233281,62.6063581 227.804044,61.7928939 227.766719,60.6521739 C227.729393,59.511454 228.102644,57.9312763 228.88647,55.911641 L228.88647,55.911641 L231.169942,49.9649369 L244.708667,49.9649369 L248.14619,59.1654979 C248.860234,60.9899994 248.993729,62.2071114 248.546675,62.816834 L248.482115,62.8962132 C247.959565,63.4759233 246.746501,63.8031791 244.842924,63.8779804 L244.842924,63.8779804 L244.842924,65 C245.62675,64.9251987 246.653188,64.8784479 247.92224,64.8597475 C249.191291,64.8410472 250.553655,64.8316971 252.009331,64.8316971 C253.091757,64.8316971 254.174184,64.8410472 255.25661,64.8597475 C256.339036,64.8784479 257.253499,64.9251987 258,65 L258,65 Z M244,49 L231,49 L237.591778,32 L244,49 Z M274.799353,45.6094183 C276.266451,45.6094183 277.375944,45.9418283 278.127832,46.6066482 C278.87972,47.2714681 279.466559,48.1855956 279.88835,49.3490305 C280.31014,50.5124654 280.686084,51.8882733 281.016181,53.4764543 L281.016181,53.4764543 L282.226537,59.0166205 C282.740022,61.3804247 283.510248,62.9686057 284.537217,63.7811634 C285.564186,64.5937211 286.756203,65 288.113269,65 C289.617044,65 290.781553,64.6952909 291.606796,64.0858726 C292.432039,63.4764543 293.229773,62.5992613 294,61.4542936 L294,61.4542936 L293.174757,60.8448753 C292.69795,61.4727608 292.248652,61.9713758 291.826861,62.3407202 C291.40507,62.7100646 290.882416,62.9132041 290.2589,62.9501385 C289.451996,62.9870729 288.855987,62.6454294 288.470874,61.9252078 C288.085761,61.2049861 287.709817,60.0323176 287.343042,58.4072022 L287.343042,58.4072022 L285.967638,52.7562327 C285.454153,50.4662973 284.656419,48.7765466 283.574434,47.6869806 C282.492449,46.5974146 280.722762,45.8494922 278.265372,45.4432133 C278.100324,45.4155125 277.933556,45.3889658 277.765069,45.3635734 L277.660306,45.3490305 L277.936417,45.3066262 C278.898534,45.1496228 279.776699,44.9315627 280.570912,44.6524456 L280.906149,44.5290859 C282.776699,43.8088643 284.252967,42.8947368 285.334951,41.7867036 C286.416936,40.6786704 287.177994,39.4967682 287.618123,38.2409972 C288.058252,36.9852262 288.278317,35.8033241 288.278317,34.6952909 C288.278317,31.9621422 287.177994,29.6722068 284.977346,27.8254848 C282.776699,25.9787627 279.457389,25.0554017 275.019417,25.0554017 C274.359223,25.0554017 273.240561,25.0738689 271.66343,25.1108033 C270.0863,25.1477378 268.435814,25.166205 266.711974,25.166205 C265.501618,25.166205 264.272923,25.1477378 263.02589,25.1108033 C261.778857,25.0738689 260.770227,25.0369344 260,25 L260,25 L260,26.1080332 C261.247033,26.1449677 262.191478,26.2834718 262.833333,26.5235457 C263.475189,26.7636196 263.906149,27.2068329 264.126214,27.8531856 C264.346278,28.4995383 264.456311,29.5060018 264.456311,30.8725762 L264.456311,30.8725762 L264.456311,58.3518006 C264.456311,59.6814404 264.346278,60.6786704 264.126214,61.3434903 C263.906149,62.0083102 263.475189,62.4515235 262.833333,62.6731302 C262.191478,62.8947368 261.247033,63.0424746 260,63.1163435 L260,63.1163435 L260,64.2243767 C260.770227,64.1505078 261.778857,64.1043398 263.02589,64.0858726 C264.272923,64.0674054 265.61165,64.0581717 267.042071,64.0581717 C268.325782,64.0581717 269.600324,64.0674054 270.865696,64.0858726 C272.131068,64.1043398 273.185545,64.1505078 274.029126,64.2243767 L274.029126,64.2243767 L274.029126,63.1163435 C272.782093,63.0424746 271.837648,62.8947368 271.195793,62.6731302 C270.553937,62.4515235 270.122977,62.0083102 269.902913,61.3434903 C269.682848,60.6786704 269.572816,59.6814404 269.572816,58.3518006 L269.572816,58.3518006 L269.57201,45.6094183 L273.809061,45.6094183 L273.809061,45.6094183 L274.799353,45.6094183 Z M270.000793,30.6626506 C270.000793,28.7831325 270.253555,27.5361446 270.75908,26.9216867 C271.264605,26.3072289 272.347872,26 274.008882,26 C277.294792,26 279.61479,26.7861446 280.968874,28.3584337 C282.322958,29.9307229 283,32.1445783 283,35 C283,36.6626506 282.756265,38.1716867 282.268795,39.5271084 C281.781324,40.8825301 280.860547,41.9668675 279.506463,42.7801205 C278.152379,43.5933735 276.193471,44 273.629738,44 L273.629738,44 L270,44 L270.000793,30.6626506 Z" id="HEYTHAR" fill="#FFFFFF" fill-rule="nonzero"></path>
    </g>
</svg>